<?xml version="1.0" encoding="UTF-8"?>
<svg id="Calque_2" data-name="Calque 2" xmlns="http://www.w3.org/2000/svg" viewBox="0 0 268.07 63.34">
  <defs>
    <style>
      .cls-1 {
        fill: #1d1d1b;
      }
    </style>
  </defs>
  <g id="Calque_1-2" data-name="Calque 1">
    <g>
      <g>
        <path class="cls-1" d="M53.82,12.27c-1.82-1.77-4.41-2.65-7.77-2.65-2.17,0-4.25.52-6.24,1.58-1.99,1.05-3.69,2.42-5.09,4.11-.7-1.8-1.85-3.2-3.45-4.2-1.61-.99-3.55-1.49-5.84-1.49-2.03,0-3.88.39-5.55,1.16-1.68.78-3.09,1.82-4.23,3.15l.72-4.03H5.53L0,40.91h10.89l2.99-16.92c.37-1.58,1.08-2.81,2.15-3.67,1.07-.87,2.38-1.3,3.93-1.3,1.33,0,2.37.34,3.12,1.02.76.68,1.14,1.65,1.14,2.9,0,.59-.04,1.04-.11,1.33l-2.93,16.64h10.83l3.1-17.36c.37-1.44,1.08-2.55,2.13-3.34,1.05-.8,2.31-1.19,3.78-1.19,1.37,0,2.42.35,3.18,1.05.76.7,1.13,1.69,1.13,2.98,0,.22-.03.63-.11,1.22l-2.93,16.64h10.78l3.21-18.08c.18-.92.28-1.99.28-3.2,0-3.14-.91-5.59-2.74-7.36Z"/>
        <path class="cls-1" d="M89.98,15.67c-1.17-1.97-2.79-3.49-4.87-4.56s-4.47-1.6-7.16-1.6c-3.65,0-6.95.81-9.89,2.43-2.95,1.62-5.27,3.87-6.94,6.75-1.68,2.87-2.52,6.08-2.52,9.62,0,2.61.57,4.9,1.72,6.85,1.14,1.95,2.75,3.47,4.83,4.53,2.08,1.07,4.47,1.61,7.16,1.61,3.65,0,6.95-.8,9.9-2.41,2.95-1.6,5.27-3.83,6.96-6.69,1.7-2.85,2.55-6.07,2.55-9.64,0-2.62-.58-4.91-1.74-6.89ZM79.75,27.59c-.54,1.29-1.31,2.34-2.32,3.15-1.02.81-2.17,1.21-3.46,1.21s-2.27-.39-3.04-1.18c-.77-.8-1.16-1.97-1.16-3.51,0-1.41.27-2.75.8-4.04.54-1.29,1.29-2.34,2.27-3.15.97-.81,2.13-1.22,3.45-1.22s2.28.41,3.07,1.22,1.19,1.99,1.19,3.54c0,1.36-.27,2.69-.8,3.98Z"/>
        <path class="cls-1" d="M113.7,16.22l.8.14,1.15-6.46h-5.58l1.33-7.52h-10.89l-1.33,7.52h-3.82l-1.6,9.01h3.82l-1.83,10.23c-.22,1.21-.33,2.3-.33,3.26,0,5.67,3.37,8.51,10.12,8.51h4.75l1.66-9.23h-3.15c-.81,0-1.39-.14-1.74-.42-.35-.27-.53-.71-.53-1.3,0-.25.02-.47.06-.66l1.88-10.39h5.48l-1.02-1.51c-.17-.25-.17-.59-.01-.85.17-.25.48-.38.78-.33Z"/>
        <path class="cls-1" d="M118.79,29.46c-1.59,0-2.89,1.29-2.89,2.88s1.3,2.88,2.89,2.88,2.88-1.29,2.88-2.88-1.3-2.88-2.88-2.88ZM118.79,33.69c-.75,0-1.35-.61-1.35-1.35s.6-1.34,1.35-1.34,1.35.6,1.35,1.34-.61,1.35-1.35,1.35ZM146.2,15.67c-1.16-1.97-2.79-3.49-4.87-4.56-2.08-1.07-4.47-1.6-7.16-1.6-3.64,0-6.94.81-9.89,2.43-2.37,1.3-4.33,3.01-5.86,5.13l3.08.55c.36.07.63.39.63.75v1.39l5.68,1.15c1.05-2.04,3.6-4.81,7.43-3.63l5.56,2.24c.01-.09.01-.19,0-.28l-2.48-1.64c-.09-.06-.17-.15-.23-.24-1.37-2.22-.06-4.3,0-4.38.11-.18.3-.3.51-.34.21-.04.43.02.6.15l5.15,4.02c1.39,1.09,2.2,2.73,2.21,4.5,0,1.29-.43,2.55-1.22,3.56-.73-.22-1.51-.35-2.31-.35-4.31,0-7.82,3.51-7.82,7.82,0,.56.07,1.1.18,1.62l-.21.18c-.13.12-.31.18-.5.18l-7.04.04h-.01c-.22,0-.43-.1-.58-.27-.14-.16-.21-.39-.18-.61.05-.38.08-.75.08-1.13,0-.8-.12-1.58-.34-2.31-.19-.34-.34-.72-.44-1.14-1.31-2.74-4.11-4.64-7.35-4.64h-.03c-.25,0-.49,0-.73.03-.29.03-.56-.1-.72-.33l-1.44-2.15c-.63,1.77-.98,3.65-1.05,5.64,1.07-.87,2.44-1.39,3.94-1.39,3.46,0,6.28,2.81,6.28,6.28,0,3.2-2.39,5.84-5.48,6.23.55.42,1.15.79,1.79,1.12,2.08,1.07,4.46,1.61,7.15,1.61,3.65,0,6.95-.8,9.9-2.41.57-.31,1.11-.64,1.63-1.01-1.97-1.06-3.31-3.15-3.31-5.54,0-3.47,2.81-6.28,6.28-6.28,1.64,0,3.13.62,4.25,1.66.44-1.63.66-3.35.66-5.16,0-2.62-.58-4.91-1.74-6.89ZM121.67,32.34c0-1.59-1.3-2.88-2.88-2.88s-2.89,1.29-2.89,2.88,1.3,2.88,2.89,2.88,2.88-1.29,2.88-2.88ZM118.79,33.69c-.75,0-1.35-.61-1.35-1.35s.6-1.34,1.35-1.34,1.35.6,1.35,1.34-.61,1.35-1.35,1.35ZM118.79,29.46c-1.59,0-2.89,1.29-2.89,2.88s1.3,2.88,2.89,2.88,2.88-1.29,2.88-2.88-1.3-2.88-2.88-2.88ZM118.79,33.69c-.75,0-1.35-.61-1.35-1.35s.6-1.34,1.35-1.34,1.35.6,1.35,1.34-.61,1.35-1.35,1.35ZM143.03,29.46c-1.59,0-2.88,1.29-2.88,2.88s1.29,2.88,2.88,2.88h.14c.83-.91,1.58-1.92,2.23-3.02.14-.23.27-.46.38-.7h0c-.36-1.19-1.46-2.04-2.75-2.04ZM143.03,33.69c-.75,0-1.34-.61-1.34-1.35s.59-1.34,1.34-1.34,1.35.6,1.35,1.34-.61,1.35-1.35,1.35Z"/>
        <path class="cls-1" d="M191.17,12.22c-1.7-1.73-4.06-2.6-7.08-2.6-2.14,0-4.09.43-5.86,1.3s-3.26,2-4.48,3.4l2.55-14.32h-10.89l-7.25,40.91h10.9l3.04-17.14c.36-1.62,1.08-2.89,2.15-3.81,1.07-.92,2.36-1.38,3.87-1.38,1.37,0,2.43.36,3.18,1.1.76.74,1.13,1.77,1.13,3.1,0,.44-.05.94-.16,1.49l-2.93,16.64h10.83l3.21-18.08c.22-1.18.33-2.3.33-3.37,0-3.1-.85-5.51-2.54-7.24Z"/>
        <path class="cls-1" d="M221.35,9.9l-2.98,16.91c-.37,1.7-1.09,3.03-2.16,3.98-1.07.96-2.38,1.44-3.92,1.44-1.33,0-2.38-.38-3.15-1.13-.78-.76-1.16-1.8-1.16-3.13,0-.47.05-.95.16-1.43l2.93-16.64h-10.84l-3.15,18.02c-.22,1.22-.33,2.36-.33,3.43,0,3.09.85,5.51,2.55,7.24,1.69,1.73,4.07,2.6,7.13,2.6,2.1,0,4.02-.44,5.77-1.3,1.75-.87,3.24-2,4.45-3.4l-.77,4.42h10.84l5.52-31.01h-10.89Z"/>
        <path class="cls-1" d="M265.11,12.72c-1.97-2.14-4.58-3.21-7.82-3.21-2.1,0-4.01.42-5.72,1.27-1.72.85-3.11,1.99-4.18,3.43l2.54-14.21h-10.89l-7.24,40.91h10.89l.78-4.31c.59,1.47,1.57,2.62,2.95,3.45,1.39.83,3.15,1.25,5.28,1.25,2.47,0,4.82-.65,7.05-1.94,2.23-1.29,4.14-3.14,5.72-5.55,1.59-2.42,2.68-5.23,3.27-8.43.22-1.4.33-2.69.33-3.87,0-3.73-.99-6.66-2.96-8.79ZM256.68,25.38c-.33,1.99-1.14,3.56-2.43,4.72-1.29,1.16-2.75,1.74-4.37,1.74-1.36,0-2.48-.43-3.35-1.29-.86-.87-1.3-2.08-1.3-3.63,0-.48.06-.99.17-1.54.33-1.99,1.15-3.56,2.46-4.7,1.31-1.15,2.76-1.72,4.34-1.72,1.36,0,2.48.43,3.35,1.27.86.85,1.3,2.03,1.3,3.54,0,.52-.06,1.05-.17,1.61Z"/>
      </g>
      <g>
        <path class="cls-1" d="M68.09,53.06c.49-.32,1.08-.48,1.76-.48.64,0,1.23.15,1.75.45s.92.73,1.22,1.28c.29.55.44,1.2.44,1.93s-.15,1.38-.44,1.94c-.29.56-.7.99-1.22,1.29-.52.31-1.1.46-1.75.46s-1.26-.16-1.75-.48-.86-.72-1.08-1.2v4.94h-.9v-10.51h.9v1.57c.23-.48.59-.88,1.08-1.2ZM71.98,54.71c-.23-.43-.55-.76-.95-.99-.4-.23-.85-.34-1.36-.34s-.93.12-1.34.35c-.41.24-.73.57-.96,1.01-.24.44-.35.94-.35,1.52s.12,1.08.35,1.52c.24.44.56.77.96,1.01.41.24.85.35,1.34.35s.96-.12,1.36-.35c.4-.23.72-.57.95-1.01.23-.44.35-.95.35-1.54s-.12-1.1-.35-1.54Z"/>
        <path class="cls-1" d="M76.63,52.93c.41-.24.92-.37,1.52-.37v.96h-.25c-.66,0-1.19.18-1.6.54s-.6.95-.6,1.79v3.99h-.92v-7.14h.92v1.27c.2-.44.51-.79.92-1.03Z"/>
        <path class="cls-1" d="M80.7,59.48c-.54-.3-.96-.73-1.27-1.28s-.46-1.2-.46-1.94.16-1.39.47-1.94c.31-.55.74-.98,1.28-1.28.54-.3,1.15-.45,1.82-.45s1.28.15,1.82.45.97.73,1.28,1.28.46,1.2.46,1.94-.16,1.38-.47,1.94c-.31.56-.75.99-1.29,1.29s-1.16.45-1.83.45-1.28-.15-1.81-.45ZM83.82,58.82c.4-.21.73-.54.97-.97s.37-.96.37-1.59-.12-1.16-.37-1.59c-.24-.43-.57-.75-.97-.97-.4-.21-.84-.32-1.31-.32s-.91.11-1.31.32c-.4.21-.72.54-.96.97s-.36.96-.36,1.59.12,1.16.36,1.59.56.75.96.97c.4.21.83.32,1.3.32s.91-.11,1.31-.32Z"/>
        <path class="cls-1" d="M88.83,53.46v4.43c0,.44.08.74.25.9.17.17.46.25.88.25h.84v.79h-.98c-.65,0-1.12-.15-1.44-.45-.31-.3-.47-.8-.47-1.48v-4.43h-.99v-.77h.99v-1.79h.93v1.79h1.96v.77h-1.96Z"/>
        <path class="cls-1" d="M98.58,56.61h-5.92c.03.54.16,1,.39,1.39s.54.67.93.87c.38.2.8.29,1.26.29.59,0,1.09-.14,1.5-.43.41-.29.67-.68.8-1.16h.97c-.17.7-.55,1.27-1.12,1.71-.57.44-1.29.66-2.15.66-.67,0-1.27-.15-1.8-.45-.53-.3-.95-.73-1.25-1.28s-.45-1.2-.45-1.94.15-1.39.44-1.95c.3-.56.71-.99,1.24-1.28.53-.3,1.14-.44,1.82-.44s1.28.15,1.79.44c.51.3.9.7,1.18,1.2.27.5.41,1.06.41,1.67,0,.31,0,.55-.03.72ZM97.36,54.51c-.22-.37-.53-.66-.91-.85s-.8-.29-1.25-.29c-.68,0-1.26.22-1.74.65s-.75,1.05-.8,1.84h5.02c0-.53-.1-.99-.32-1.36ZM96.37,50.58l-2.68,1.56v-.71l2.68-1.67v.82Z"/>
        <path class="cls-1" d="M104.89,53.06c.5.31.85.71,1.07,1.19v-1.56h.92v7.32c0,.65-.14,1.23-.42,1.74s-.68.9-1.18,1.17-1.08.41-1.73.41c-.92,0-1.68-.22-2.28-.65-.61-.44-.98-1.03-1.13-1.78h.9c.16.5.46.89.9,1.19.44.3.98.45,1.61.45.46,0,.88-.1,1.24-.29.37-.2.65-.49.86-.87.21-.38.31-.84.31-1.36v-1.77c-.23.49-.59.89-1.08,1.21s-1.07.48-1.75.48-1.24-.15-1.76-.46c-.52-.3-.92-.74-1.22-1.29-.29-.56-.44-1.2-.44-1.94s.15-1.38.44-1.93c.29-.55.7-.98,1.22-1.28s1.11-.45,1.76-.45,1.26.16,1.75.47ZM105.6,54.74c-.24-.44-.56-.77-.96-1.01s-.85-.35-1.34-.35-.96.11-1.36.34c-.4.23-.72.56-.95.99-.23.43-.35.94-.35,1.54s.12,1.1.35,1.54c.23.44.55.78.95,1.01.4.23.85.35,1.36.35s.94-.12,1.34-.35.73-.57.96-1.01c.24-.44.35-.94.35-1.52s-.12-1.08-.35-1.52Z"/>
        <path class="cls-1" d="M115.26,56.61h-5.92c.03.54.16,1,.39,1.39s.54.67.93.87c.38.2.8.29,1.26.29.59,0,1.09-.14,1.5-.43.41-.29.67-.68.8-1.16h.97c-.17.7-.55,1.27-1.12,1.71-.57.44-1.29.66-2.15.66-.67,0-1.27-.15-1.8-.45-.53-.3-.95-.73-1.25-1.28s-.45-1.2-.45-1.94.15-1.39.44-1.95c.3-.56.71-.99,1.24-1.28.53-.3,1.14-.44,1.82-.44s1.28.15,1.79.44c.51.3.9.7,1.18,1.2.27.5.41,1.06.41,1.67,0,.31,0,.55-.03.72ZM114.03,54.51c-.22-.37-.53-.66-.91-.85s-.8-.29-1.25-.29c-.68,0-1.26.22-1.74.65s-.75,1.05-.8,1.84h5.02c0-.53-.1-.99-.32-1.36Z"/>
        <path class="cls-1" d="M118.65,52.93c.41-.24.92-.37,1.52-.37v.96h-.25c-.66,0-1.19.18-1.6.54s-.6.95-.6,1.79v3.99h-.92v-7.14h.92v1.27c.2-.44.51-.79.92-1.03Z"/>
        <path class="cls-1" d="M131.28,56.61h-5.92c.03.54.16,1,.39,1.39s.54.67.93.87c.38.2.8.29,1.25.29.59,0,1.09-.14,1.5-.43.41-.29.67-.68.8-1.16h.97c-.17.7-.55,1.27-1.12,1.71-.57.44-1.29.66-2.15.66-.67,0-1.27-.15-1.8-.45-.53-.3-.95-.73-1.25-1.28s-.45-1.2-.45-1.94.15-1.39.44-1.95c.3-.56.71-.99,1.24-1.28.53-.3,1.14-.44,1.82-.44s1.28.15,1.79.44c.51.3.9.7,1.18,1.2.27.5.41,1.06.41,1.67,0,.31,0,.55-.03.72ZM130.05,54.51c-.22-.37-.53-.66-.91-.85s-.8-.29-1.26-.29c-.68,0-1.26.22-1.74.65s-.75,1.05-.8,1.84h5.02c0-.53-.1-.99-.32-1.36Z"/>
        <path class="cls-1" d="M134.02,53.46v4.43c0,.44.08.74.25.9s.46.25.88.25h.84v.79h-.98c-.65,0-1.12-.15-1.44-.45s-.47-.8-.47-1.48v-4.43h-.99v-.77h.99v-1.79h.93v1.79h1.96v.77h-1.96Z"/>
        <path class="cls-1" d="M142.62,52.93c.41-.24.92-.37,1.52-.37v.96h-.25c-.66,0-1.19.18-1.6.54s-.6.95-.6,1.79v3.99h-.92v-7.14h.92v1.27c.2-.44.51-.79.92-1.03Z"/>
        <path class="cls-1" d="M151.81,56.61h-5.92c.03.54.16,1,.39,1.39s.54.67.93.87c.38.2.8.29,1.25.29.59,0,1.09-.14,1.5-.43.41-.29.67-.68.8-1.16h.97c-.17.7-.55,1.27-1.12,1.71-.57.44-1.29.66-2.15.66-.67,0-1.27-.15-1.8-.45-.53-.3-.95-.73-1.25-1.28s-.45-1.2-.45-1.94.15-1.39.44-1.95c.3-.56.71-.99,1.24-1.28.53-.3,1.14-.44,1.82-.44s1.28.15,1.79.44c.51.3.9.7,1.18,1.2.27.5.41,1.06.41,1.67,0,.31,0,.55-.03.72ZM150.58,54.51c-.22-.37-.53-.66-.91-.85s-.8-.29-1.26-.29c-.68,0-1.26.22-1.74.65s-.75,1.05-.8,1.84h5.02c0-.53-.1-.99-.32-1.36Z"/>
        <path class="cls-1" d="M153.39,54.32c.3-.55.71-.98,1.23-1.28.52-.3,1.12-.45,1.79-.45.88,0,1.61.22,2.18.65.57.44.94,1.03,1.11,1.78h-.98c-.12-.51-.39-.92-.79-1.21s-.91-.44-1.51-.44c-.48,0-.91.11-1.29.33-.38.22-.69.54-.91.97-.22.43-.33.96-.33,1.59s.11,1.16.33,1.6c.22.44.53.76.91.98.38.22.81.33,1.29.33.6,0,1.11-.15,1.51-.44s.67-.7.79-1.22h.98c-.17.73-.54,1.32-1.11,1.77-.58.44-1.3.67-2.17.67-.67,0-1.27-.15-1.79-.45-.52-.3-.93-.73-1.23-1.28-.3-.55-.44-1.2-.44-1.94s.15-1.39.44-1.94Z"/>
        <path class="cls-1" d="M166.09,52.9c.43.23.77.57,1.02,1.04s.37,1.04.37,1.71v4.19h-.9v-4.08c0-.78-.19-1.37-.58-1.78-.39-.41-.92-.61-1.59-.61s-1.24.22-1.65.65c-.41.44-.61,1.08-.61,1.92v3.9h-.92v-9.68h.92v3.75c.23-.43.56-.76,1-.99.44-.24.94-.35,1.48-.35s1.03.11,1.46.34Z"/>
        <path class="cls-1" d="M169.39,54.32c.29-.55.7-.98,1.22-1.28.52-.3,1.1-.45,1.76-.45s1.27.16,1.76.47c.49.31.85.71,1.07,1.2v-1.57h.92v7.14h-.92v-1.58c-.23.49-.59.89-1.08,1.21-.49.32-1.08.48-1.76.48-.64,0-1.23-.15-1.75-.46-.52-.3-.92-.74-1.22-1.29-.29-.56-.44-1.2-.44-1.94s.15-1.38.44-1.93ZM174.84,54.74c-.24-.44-.56-.77-.96-1.01-.41-.24-.85-.35-1.34-.35s-.96.11-1.36.34-.72.56-.95.99c-.23.43-.35.94-.35,1.54s.12,1.1.35,1.54c.23.44.55.78.95,1.01.4.23.85.35,1.36.35s.93-.12,1.34-.35c.41-.24.73-.57.96-1.01.24-.44.35-.94.35-1.52s-.12-1.08-.35-1.52Z"/>
        <path class="cls-1" d="M179.89,52.93c.41-.24.92-.37,1.52-.37v.96h-.25c-.66,0-1.19.18-1.6.54-.4.36-.6.95-.6,1.79v3.99h-.92v-7.14h.92v1.27c.2-.44.51-.79.92-1.03Z"/>
        <path class="cls-1" d="M187.39,53.06c.5.31.85.71,1.07,1.19v-1.56h.92v7.32c0,.65-.14,1.23-.42,1.74s-.68.9-1.18,1.17-1.08.41-1.73.41c-.92,0-1.68-.22-2.28-.65-.61-.44-.98-1.03-1.13-1.78h.9c.16.5.46.89.9,1.19.44.3.98.45,1.61.45.46,0,.88-.1,1.24-.29.37-.2.65-.49.86-.87.21-.38.31-.84.31-1.36v-1.77c-.23.49-.59.89-1.08,1.21s-1.07.48-1.75.48-1.24-.15-1.76-.46c-.52-.3-.92-.74-1.22-1.29-.29-.56-.44-1.2-.44-1.94s.15-1.38.44-1.93c.29-.55.7-.98,1.22-1.28s1.11-.45,1.76-.45,1.26.16,1.75.47ZM188.11,54.74c-.24-.44-.56-.77-.96-1.01s-.85-.35-1.34-.35-.96.11-1.36.34c-.4.23-.72.56-.95.99-.23.43-.35.94-.35,1.54s.12,1.1.35,1.54c.23.44.55.78.95,1.01.4.23.85.35,1.36.35s.94-.12,1.34-.35.73-.57.96-1.01c.24-.44.35-.94.35-1.52s-.12-1.08-.35-1.52Z"/>
        <path class="cls-1" d="M197.76,56.61h-5.92c.03.54.16,1,.39,1.39s.54.67.93.87c.38.2.8.29,1.25.29.59,0,1.09-.14,1.5-.43.41-.29.67-.68.8-1.16h.97c-.17.7-.55,1.27-1.12,1.71-.57.44-1.29.66-2.15.66-.67,0-1.27-.15-1.8-.45-.53-.3-.95-.73-1.25-1.28s-.45-1.2-.45-1.94.15-1.39.44-1.95c.3-.56.71-.99,1.24-1.28.53-.3,1.14-.44,1.82-.44s1.28.15,1.79.44c.51.3.9.7,1.18,1.2.27.5.41,1.06.41,1.67,0,.31,0,.55-.03.72ZM196.54,54.51c-.22-.37-.53-.66-.91-.85s-.8-.29-1.26-.29c-.68,0-1.26.22-1.74.65s-.75,1.05-.8,1.84h5.02c0-.53-.1-.99-.32-1.36Z"/>
        <path class="cls-1" d="M201.15,52.93c.41-.24.92-.37,1.52-.37v.96h-.25c-.66,0-1.19.18-1.6.54-.4.36-.6.95-.6,1.79v3.99h-.92v-7.14h.92v1.27c.2-.44.51-.79.92-1.03Z"/>
      </g>
    </g>
  </g>
</svg>